<?xml version="1.0" encoding="UTF-8"?>
<svg version="1.1" xmlns="http://www.w3.org/2000/svg" width="641" height="791">
<path d="M0 0 C33 0 66 0 100 0 C100 16.5 100 33 100 50 C113.2 50 126.4 50 140 50 C140 43.4 140 36.8 140 30 C146.6 30 153.2 30 160 30 C160 36.6 160 43.2 160 50 C166.6 50 173.2 50 180 50 C180 43.4 180 36.8 180 30 C186.6 30 193.2 30 200 30 C200 23.4 200 16.8 200 10 C213.2 10 226.4 10 240 10 C240 6.7 240 3.4 240 0 C269.7 0 299.4 0 330 0 C330 13.2 330 26.4 330 40 C320.1 40 310.2 40 300 40 C300 46.6 300 53.2 300 60 C293.4 60 286.8 60 280 60 C280 69.9 280 79.8 280 90 C266.8 90 253.6 90 240 90 C240 96.6 240 103.2 240 110 C226.8 110 213.6 110 200 110 C200 116.6 200 123.2 200 130 C193.4 130 186.8 130 180 130 C180 123.4 180 116.8 180 110 C173.4 110 166.8 110 160 110 C160 116.6 160 123.2 160 130 C153.4 130 146.8 130 140 130 C140 143.2 140 156.4 140 170 C146.6 170 153.2 170 160 170 C160 176.6 160 183.2 160 190 C166.6 190 173.2 190 180 190 C180 196.6 180 203.2 180 210 C186.6 210 193.2 210 200 210 C200 216.6 200 223.2 200 230 C206.6 230 213.2 230 220 230 C220 249.8 220 269.6 220 290 C226.6 290 233.2 290 240 290 C240 316.4 240 342.8 240 370 C246.6 370 253.2 370 260 370 C260 376.6 260 383.2 260 390 C266.6 390 273.2 390 280 390 C280 396.6 280 403.2 280 410 C286.6 410 293.2 410 300 410 C300 416.6 300 423.2 300 430 C313.2 430 326.4 430 340 430 C340 436.6 340 443.2 340 450 C353.2 450 366.4 450 380 450 C380 456.6 380 463.2 380 470 C386.6 470 393.2 470 400 470 C400 476.6 400 483.2 400 490 C406.6 490 413.2 490 420 490 C420 516.4 420 542.8 420 570 C426.6 570 433.2 570 440 570 C440 576.6 440 583.2 440 590 C446.6 590 453.2 590 460 590 C460 603.2 460 616.4 460 630 C466.6 630 473.2 630 480 630 C480 643.2 480 656.4 480 670 C473.4 670 466.8 670 460 670 C460 676.6 460 683.2 460 690 C466.6 690 473.2 690 480 690 C480 709.8 480 729.6 480 750 C473.4 750 466.8 750 460 750 C460 756.6 460 763.2 460 770 C446.8 770 433.6 770 420 770 C420 763.4 420 756.8 420 750 C413.4 750 406.8 750 400 750 C400 736.8 400 723.6 400 710 C393.4 710 386.8 710 380 710 C380 703.4 380 696.8 380 690 C373.4 690 366.8 690 360 690 C360 696.6 360 703.2 360 710 C346.8 710 333.6 710 320 710 C320 703.4 320 696.8 320 690 C313.4 690 306.8 690 300 690 C300 716.4 300 742.8 300 770 C293.4 770 286.8 770 280 770 C280 776.6 280 783.2 280 790 C253.6 790 227.2 790 200 790 C200 783.4 200 776.8 200 770 C193.4 770 186.8 770 180 770 C180 756.8 180 743.6 180 730 C166.8 730 153.6 730 140 730 C140 723.4 140 716.8 140 710 C126.8 710 113.6 710 100 710 C100 703.4 100 696.8 100 690 C86.8 690 73.6 690 60 690 C60 696.6 60 703.2 60 710 C33.6 710 7.2 710 -20 710 C-20 716.6 -20 723.2 -20 730 C-26.6 730 -33.2 730 -40 730 C-40 723.4 -40 716.8 -40 710 C-46.6 710 -53.2 710 -60 710 C-60 703.4 -60 696.8 -60 690 C-66.6 690 -73.2 690 -80 690 C-80 676.8 -80 663.6 -80 650 C-73.4 650 -66.8 650 -60 650 C-60 643.4 -60 636.8 -60 630 C-53.4 630 -46.8 630 -40 630 C-40 623.4 -40 616.8 -40 610 C-46.6 610 -53.2 610 -60 610 C-60 603.4 -60 596.8 -60 590 C-73.2 590 -86.4 590 -100 590 C-100 583.4 -100 576.8 -100 570 C-106.6 570 -113.2 570 -120 570 C-120 563.4 -120 556.8 -120 550 C-126.6 550 -133.2 550 -140 550 C-140 536.8 -140 523.6 -140 510 C-146.6 510 -153.2 510 -160 510 C-160 490.2 -160 470.4 -160 450 C-153.4 450 -146.8 450 -140 450 C-140 443.4 -140 436.8 -140 430 C-146.6 430 -153.2 430 -160 430 C-160 397 -160 364 -160 330 C-153.4 330 -146.8 330 -140 330 C-140 316.8 -140 303.6 -140 290 C-133.4 290 -126.8 290 -120 290 C-120 283.4 -120 276.8 -120 270 C-113.4 270 -106.8 270 -100 270 C-100 263.4 -100 256.8 -100 250 C-93.4 250 -86.8 250 -80 250 C-80 243.4 -80 236.8 -80 230 C-66.8 230 -53.6 230 -40 230 C-40 223.4 -40 216.8 -40 210 C-33.4 210 -26.8 210 -20 210 C-20 203.4 -20 196.8 -20 190 C-6.8 190 6.4 190 20 190 C20 183.4 20 176.8 20 170 C33.2 170 46.4 170 60 170 C60 163.4 60 156.8 60 150 C73.2 150 86.4 150 100 150 C100 143.4 100 136.8 100 130 C106.6 130 113.2 130 120 130 C120 123.4 120 116.8 120 110 C106.8 110 93.6 110 80 110 C80 103.4 80 96.8 80 90 C60.2 90 40.4 90 20 90 C20 83.4 20 76.8 20 70 C13.4 70 6.8 70 0 70 C0 46.9 0 23.8 0 0 Z " fill="#AEE378" transform="translate(161,1)"/>
<path d="M0 0 C6.6 0 13.2 0 20 0 C20 6.6 20 13.2 20 20 C26.6 20 33.2 20 40 20 C40 26.6 40 33.2 40 40 C46.6 40 53.2 40 60 40 C60 46.6 60 53.2 60 60 C73.2 60 86.4 60 100 60 C100 66.6 100 73.2 100 80 C113.2 80 126.4 80 140 80 C140 86.6 140 93.2 140 100 C146.6 100 153.2 100 160 100 C160 106.6 160 113.2 160 120 C166.6 120 173.2 120 180 120 C180 146.4 180 172.8 180 200 C186.6 200 193.2 200 200 200 C200 206.6 200 213.2 200 220 C206.6 220 213.2 220 220 220 C220 233.2 220 246.4 220 260 C226.6 260 233.2 260 240 260 C240 273.2 240 286.4 240 300 C233.4 300 226.8 300 220 300 C220 306.6 220 313.2 220 320 C226.6 320 233.2 320 240 320 C240 339.8 240 359.6 240 380 C233.4 380 226.8 380 220 380 C220 386.6 220 393.2 220 400 C206.8 400 193.6 400 180 400 C180 393.4 180 386.8 180 380 C173.4 380 166.8 380 160 380 C160 366.8 160 353.6 160 340 C153.4 340 146.8 340 140 340 C140 333.4 140 326.8 140 320 C133.4 320 126.8 320 120 320 C120 326.6 120 333.2 120 340 C106.8 340 93.6 340 80 340 C80 333.4 80 326.8 80 320 C73.4 320 66.8 320 60 320 C60 346.4 60 372.8 60 400 C53.4 400 46.8 400 40 400 C40 406.6 40 413.2 40 420 C13.6 420 -12.8 420 -40 420 C-40 413.4 -40 406.8 -40 400 C-46.6 400 -53.2 400 -60 400 C-60 386.8 -60 373.6 -60 360 C-73.2 360 -86.4 360 -100 360 C-100 353.4 -100 346.8 -100 340 C-113.2 340 -126.4 340 -140 340 C-140 333.4 -140 326.8 -140 320 C-153.2 320 -166.4 320 -180 320 C-180 326.6 -180 333.2 -180 340 C-206.4 340 -232.8 340 -260 340 C-260 346.6 -260 353.2 -260 360 C-266.6 360 -273.2 360 -280 360 C-280 353.4 -280 346.8 -280 340 C-286.6 340 -293.2 340 -300 340 C-300 333.4 -300 326.8 -300 320 C-306.6 320 -313.2 320 -320 320 C-320 306.8 -320 293.6 -320 280 C-313.4 280 -306.8 280 -300 280 C-300 273.4 -300 266.8 -300 260 C-293.4 260 -286.8 260 -280 260 C-280 253.4 -280 246.8 -280 240 C-286.6 240 -293.2 240 -300 240 C-300 233.4 -300 226.8 -300 220 C-313.2 220 -326.4 220 -340 220 C-340 213.4 -340 206.8 -340 200 C-346.6 200 -353.2 200 -360 200 C-360 193.4 -360 186.8 -360 180 C-366.6 180 -373.2 180 -380 180 C-380 166.8 -380 153.6 -380 140 C-373.4 140 -366.8 140 -360 140 C-360 133.4 -360 126.8 -360 120 C-353.4 120 -346.8 120 -340 120 C-340 126.6 -340 133.2 -340 140 C-333.4 140 -326.8 140 -320 140 C-320 146.6 -320 153.2 -320 160 C-313.4 160 -306.8 160 -300 160 C-300 166.6 -300 173.2 -300 180 C-286.8 180 -273.6 180 -260 180 C-260 173.4 -260 166.8 -260 160 C-253.4 160 -246.8 160 -240 160 C-240 153.4 -240 146.8 -240 140 C-233.4 140 -226.8 140 -220 140 C-220 146.6 -220 153.2 -220 160 C-173.8 160 -127.6 160 -80 160 C-80 153.4 -80 146.8 -80 140 C-60.2 140 -40.4 140 -20 140 C-20 133.4 -20 126.8 -20 120 C-13.4 120 -6.8 120 0 120 C0 113.4 0 106.8 0 100 C6.6 100 13.2 100 20 100 C20 86.8 20 73.6 20 60 C13.4 60 6.8 60 0 60 C0 53.4 0 46.8 0 40 C-13.2 40 -26.4 40 -40 40 C-40 33.4 -40 26.8 -40 20 C-26.8 20 -13.6 20 0 20 C0 13.4 0 6.8 0 0 Z " fill="#97BF39" transform="translate(401,371)"/>
<path d="M0 0 C6.6 0 13.2 0 20 0 C20 6.6 20 13.2 20 20 C26.6 20 33.2 20 40 20 C40 26.6 40 33.2 40 40 C46.6 40 53.2 40 60 40 C60 46.6 60 53.2 60 60 C73.2 60 86.4 60 100 60 C100 66.6 100 73.2 100 80 C113.2 80 126.4 80 140 80 C140 86.6 140 93.2 140 100 C146.6 100 153.2 100 160 100 C160 106.6 160 113.2 160 120 C166.6 120 173.2 120 180 120 C180 146.4 180 172.8 180 200 C186.6 200 193.2 200 200 200 C200 206.6 200 213.2 200 220 C193.4 220 186.8 220 180 220 C180 226.6 180 233.2 180 240 C160.2 240 140.4 240 120 240 C120 233.4 120 226.8 120 220 C100.2 220 80.4 220 60 220 C60 213.4 60 206.8 60 200 C27 200 -6 200 -40 200 C-40 206.6 -40 213.2 -40 220 C-53.2 220 -66.4 220 -80 220 C-80 226.6 -80 233.2 -80 240 C-99.8 240 -119.6 240 -140 240 C-140 246.6 -140 253.2 -140 260 C-153.2 260 -166.4 260 -180 260 C-180 266.6 -180 273.2 -180 280 C-186.6 280 -193.2 280 -200 280 C-200 273.4 -200 266.8 -200 260 C-226.4 260 -252.8 260 -280 260 C-280 253.4 -280 246.8 -280 240 C-286.6 240 -293.2 240 -300 240 C-300 233.4 -300 226.8 -300 220 C-313.2 220 -326.4 220 -340 220 C-340 213.4 -340 206.8 -340 200 C-346.6 200 -353.2 200 -360 200 C-360 193.4 -360 186.8 -360 180 C-366.6 180 -373.2 180 -380 180 C-380 166.8 -380 153.6 -380 140 C-373.4 140 -366.8 140 -360 140 C-360 133.4 -360 126.8 -360 120 C-353.4 120 -346.8 120 -340 120 C-340 126.6 -340 133.2 -340 140 C-333.4 140 -326.8 140 -320 140 C-320 146.6 -320 153.2 -320 160 C-313.4 160 -306.8 160 -300 160 C-300 166.6 -300 173.2 -300 180 C-286.8 180 -273.6 180 -260 180 C-260 173.4 -260 166.8 -260 160 C-253.4 160 -246.8 160 -240 160 C-240 153.4 -240 146.8 -240 140 C-233.4 140 -226.8 140 -220 140 C-220 146.6 -220 153.2 -220 160 C-173.8 160 -127.6 160 -80 160 C-80 153.4 -80 146.8 -80 140 C-60.2 140 -40.4 140 -20 140 C-20 133.4 -20 126.8 -20 120 C-13.4 120 -6.8 120 0 120 C0 113.4 0 106.8 0 100 C6.6 100 13.2 100 20 100 C20 86.8 20 73.6 20 60 C13.4 60 6.8 60 0 60 C0 53.4 0 46.8 0 40 C-13.2 40 -26.4 40 -40 40 C-40 33.4 -40 26.8 -40 20 C-26.8 20 -13.6 20 0 20 C0 13.4 0 6.8 0 0 Z " fill="#A18722" transform="translate(401,371)"/>
<path d="M0 0 C33 0 66 0 100 0 C100 16.5 100 33 100 50 C113.2 50 126.4 50 140 50 C140 43.4 140 36.8 140 30 C146.6 30 153.2 30 160 30 C160 36.6 160 43.2 160 50 C166.6 50 173.2 50 180 50 C180 43.4 180 36.8 180 30 C186.6 30 193.2 30 200 30 C200 23.4 200 16.8 200 10 C213.2 10 226.4 10 240 10 C240 6.7 240 3.4 240 0 C269.7 0 299.4 0 330 0 C330 13.2 330 26.4 330 40 C320.1 40 310.2 40 300 40 C300 46.6 300 53.2 300 60 C293.4 60 286.8 60 280 60 C280 69.9 280 79.8 280 90 C266.8 90 253.6 90 240 90 C240 96.6 240 103.2 240 110 C226.8 110 213.6 110 200 110 C200 116.6 200 123.2 200 130 C193.4 130 186.8 130 180 130 C180 123.4 180 116.8 180 110 C173.4 110 166.8 110 160 110 C160 116.6 160 123.2 160 130 C153.4 130 146.8 130 140 130 C140 143.2 140 156.4 140 170 C146.6 170 153.2 170 160 170 C160 176.6 160 183.2 160 190 C166.6 190 173.2 190 180 190 C180 196.6 180 203.2 180 210 C186.6 210 193.2 210 200 210 C200 216.6 200 223.2 200 230 C206.6 230 213.2 230 220 230 C220 236.6 220 243.2 220 250 C206.8 250 193.6 250 180 250 C180 243.4 180 236.8 180 230 C173.4 230 166.8 230 160 230 C160 223.4 160 216.8 160 210 C153.4 210 146.8 210 140 210 C140 216.6 140 223.2 140 230 C133.4 230 126.8 230 120 230 C120 236.6 120 243.2 120 250 C113.4 250 106.8 250 100 250 C100 243.4 100 236.8 100 230 C93.4 230 86.8 230 80 230 C80 223.4 80 216.8 80 210 C73.4 210 66.8 210 60 210 C60 216.6 60 223.2 60 230 C46.8 230 33.6 230 20 230 C20 236.6 20 243.2 20 250 C13.4 250 6.8 250 0 250 C0 243.4 0 236.8 0 230 C-13.2 230 -26.4 230 -40 230 C-40 223.4 -40 216.8 -40 210 C-33.4 210 -26.8 210 -20 210 C-20 203.4 -20 196.8 -20 190 C-6.8 190 6.4 190 20 190 C20 183.4 20 176.8 20 170 C33.2 170 46.4 170 60 170 C60 163.4 60 156.8 60 150 C73.2 150 86.4 150 100 150 C100 143.4 100 136.8 100 130 C106.6 130 113.2 130 120 130 C120 123.4 120 116.8 120 110 C106.8 110 93.6 110 80 110 C80 103.4 80 96.8 80 90 C60.2 90 40.4 90 20 90 C20 83.4 20 76.8 20 70 C13.4 70 6.8 70 0 70 C0 46.9 0 23.8 0 0 Z " fill="#1F8713" transform="translate(161,1)"/>
<path d="M0 0 C13.2 0 26.4 0 40 0 C40 6.6 40 13.2 40 20 C46.6 20 53.2 20 60 20 C60 46.4 60 72.8 60 100 C73.2 100 86.4 100 100 100 C100 93.4 100 86.8 100 80 C113.2 80 126.4 80 140 80 C140 86.6 140 93.2 140 100 C146.6 100 153.2 100 160 100 C160 113.2 160 126.4 160 140 C153.4 140 146.8 140 140 140 C140 146.6 140 153.2 140 160 C133.4 160 126.8 160 120 160 C120 166.6 120 173.2 120 180 C100.2 180 80.4 180 60 180 C60 186.6 60 193.2 60 200 C13.8 200 -32.4 200 -80 200 C-80 193.4 -80 186.8 -80 180 C-86.6 180 -93.2 180 -100 180 C-100 186.6 -100 193.2 -100 200 C-106.6 200 -113.2 200 -120 200 C-120 206.6 -120 213.2 -120 220 C-133.2 220 -146.4 220 -160 220 C-160 213.4 -160 206.8 -160 200 C-166.6 200 -173.2 200 -180 200 C-180 193.4 -180 186.8 -180 180 C-160.2 180 -140.4 180 -120 180 C-120 173.4 -120 166.8 -120 160 C-80.4 160 -40.8 160 0 160 C0 146.8 0 133.6 0 120 C-6.6 120 -13.2 120 -20 120 C-20 87 -20 54 -20 20 C-13.4 20 -6.8 20 0 20 C0 13.4 0 6.8 0 0 Z " fill="#EDED2B" transform="translate(261,331)"/>
<path d="M0 0 C13.2 0 26.4 0 40 0 C40 6.6 40 13.2 40 20 C46.6 20 53.2 20 60 20 C60 66.2 60 112.4 60 160 C53.4 160 46.8 160 40 160 C40 166.6 40 173.2 40 180 C20.2 180 0.4 180 -20 180 C-20 166.8 -20 153.6 -20 140 C-13.4 140 -6.8 140 0 140 C0 133.4 0 126.8 0 120 C-6.6 120 -13.2 120 -20 120 C-20 113.4 -20 106.8 -20 100 C-26.6 100 -33.2 100 -40 100 C-40 86.8 -40 73.6 -40 60 C-33.4 60 -26.8 60 -20 60 C-20 46.8 -20 33.6 -20 20 C-13.4 20 -6.8 20 0 20 C0 13.4 0 6.8 0 0 Z " fill="#AEE378" transform="translate(401,611)"/>
<path d="M0 0 C26.4 0 52.8 0 80 0 C80 13.2 80 26.4 80 40 C86.6 40 93.2 40 100 40 C100 46.6 100 53.2 100 60 C93.4 60 86.8 60 80 60 C80 66.6 80 73.2 80 80 C73.4 80 66.8 80 60 80 C60 86.6 60 93.2 60 100 C53.4 100 46.8 100 40 100 C40 106.6 40 113.2 40 120 C33.4 120 26.8 120 20 120 C20 133.2 20 146.4 20 160 C13.4 160 6.8 160 0 160 C0 146.8 0 133.6 0 120 C-6.6 120 -13.2 120 -20 120 C-20 113.4 -20 106.8 -20 100 C-33.2 100 -46.4 100 -60 100 C-60 86.8 -60 73.6 -60 60 C-53.4 60 -46.8 60 -40 60 C-40 53.4 -40 46.8 -40 40 C-33.4 40 -26.8 40 -20 40 C-20 33.4 -20 26.8 -20 20 C-13.4 20 -6.8 20 0 20 C0 13.4 0 6.8 0 0 Z " fill="#C7E356" transform="translate(81,231)"/>
<path d="M0 0 C29.7 0 59.4 0 90 0 C90 13.2 90 26.4 90 40 C80.1 40 70.2 40 60 40 C60 46.6 60 53.2 60 60 C53.4 60 46.8 60 40 60 C40 69.9 40 79.8 40 90 C26.8 90 13.6 90 0 90 C0 96.6 0 103.2 0 110 C-13.2 110 -26.4 110 -40 110 C-40 116.6 -40 123.2 -40 130 C-46.6 130 -53.2 130 -60 130 C-60 123.4 -60 116.8 -60 110 C-66.6 110 -73.2 110 -80 110 C-80 90.2 -80 70.4 -80 50 C-73.4 50 -66.8 50 -60 50 C-60 43.4 -60 36.8 -60 30 C-53.4 30 -46.8 30 -40 30 C-40 23.4 -40 16.8 -40 10 C-26.8 10 -13.6 10 0 10 C0 6.7 0 3.4 0 0 Z " fill="#1F8713" transform="translate(401,1)"/>
<path d="M0 0 C6.6 0 13.2 0 20 0 C20 6.6 20 13.2 20 20 C46.4 20 72.8 20 100 20 C100 26.6 100 33.2 100 40 C106.6 40 113.2 40 120 40 C120 46.6 120 53.2 120 60 C126.6 60 133.2 60 140 60 C140 66.6 140 73.2 140 80 C146.6 80 153.2 80 160 80 C160 86.6 160 93.2 160 100 C146.8 100 133.6 100 120 100 C120 93.4 120 86.8 120 80 C113.4 80 106.8 80 100 80 C100 73.4 100 66.8 100 60 C93.4 60 86.8 60 80 60 C80 66.6 80 73.2 80 80 C73.4 80 66.8 80 60 80 C60 86.6 60 93.2 60 100 C53.4 100 46.8 100 40 100 C40 93.4 40 86.8 40 80 C33.4 80 26.8 80 20 80 C20 73.4 20 66.8 20 60 C13.4 60 6.8 60 0 60 C0 66.6 0 73.2 0 80 C-13.2 80 -26.4 80 -40 80 C-40 86.6 -40 93.2 -40 100 C-46.6 100 -53.2 100 -60 100 C-60 93.4 -60 86.8 -60 80 C-73.2 80 -86.4 80 -100 80 C-100 73.4 -100 66.8 -100 60 C-93.4 60 -86.8 60 -80 60 C-80 53.4 -80 46.8 -80 40 C-66.8 40 -53.6 40 -40 40 C-40 33.4 -40 26.8 -40 20 C-26.8 20 -13.6 20 0 20 C0 13.4 0 6.8 0 0 Z " fill="#BA8E41" transform="translate(221,151)"/>
<path d="M0 0 C6.6 0 13.2 0 20 0 C20 19.8 20 39.6 20 60 C26.6 60 33.2 60 40 60 C40 66.6 40 73.2 40 80 C53.2 80 66.4 80 80 80 C80 86.6 80 93.2 80 100 C86.6 100 93.2 100 100 100 C100 86.8 100 73.6 100 60 C93.4 60 86.8 60 80 60 C80 46.8 80 33.6 80 20 C86.6 20 93.2 20 100 20 C100 26.6 100 33.2 100 40 C106.6 40 113.2 40 120 40 C120 59.8 120 79.6 120 100 C133.2 100 146.4 100 160 100 C160 106.6 160 113.2 160 120 C153.4 120 146.8 120 140 120 C140 126.6 140 133.2 140 140 C120.2 140 100.4 140 80 140 C80 133.4 80 126.8 80 120 C60.2 120 40.4 120 20 120 C20 113.4 20 106.8 20 100 C6.8 100 -6.4 100 -20 100 C-20 73.6 -20 47.2 -20 20 C-13.4 20 -6.8 20 0 20 C0 13.4 0 6.8 0 0 Z " fill="#050501" transform="translate(441,471)"/>
<path d="M0 0 C13.2 0 26.4 0 40 0 C40 6.6 40 13.2 40 20 C46.6 20 53.2 20 60 20 C60 33.2 60 46.4 60 60 C53.4 60 46.8 60 40 60 C40 66.6 40 73.2 40 80 C33.4 80 26.8 80 20 80 C20 86.6 20 93.2 20 100 C0.2 100 -19.6 100 -40 100 C-40 106.6 -40 113.2 -40 120 C-86.2 120 -132.4 120 -180 120 C-180 113.4 -180 106.8 -180 100 C-147 100 -114 100 -80 100 C-80 93.4 -80 86.8 -80 80 C-66.8 80 -53.6 80 -40 80 C-40 73.4 -40 66.8 -40 60 C-33.4 60 -26.8 60 -20 60 C-20 46.8 -20 33.6 -20 20 C-13.4 20 -6.8 20 0 20 C0 13.4 0 6.8 0 0 Z " fill="#EDED2B" transform="translate(361,411)"/>
<path d="M0 0 C26.4 0 52.8 0 80 0 C80 6.6 80 13.2 80 20 C86.6 20 93.2 20 100 20 C100 26.6 100 33.2 100 40 C106.6 40 113.2 40 120 40 C120 66.4 120 92.8 120 120 C113.4 120 106.8 120 100 120 C100 100.2 100 80.4 100 60 C93.4 60 86.8 60 80 60 C80 53.4 80 46.8 80 40 C73.4 40 66.8 40 60 40 C60 53.2 60 66.4 60 80 C66.6 80 73.2 80 80 80 C80 93.2 80 106.4 80 120 C73.4 120 66.8 120 60 120 C60 113.4 60 106.8 60 100 C46.8 100 33.6 100 20 100 C20 93.4 20 86.8 20 80 C13.4 80 6.8 80 0 80 C0 53.6 0 27.2 0 0 Z " fill="#BA8E41" transform="translate(461,451)"/>
<path d="M0 0 C13.2 0 26.4 0 40 0 C40 6.6 40 13.2 40 20 C53.2 20 66.4 20 80 20 C80 39.8 80 59.6 80 80 C66.8 80 53.6 80 40 80 C40 86.6 40 93.2 40 100 C33.4 100 26.8 100 20 100 C20 93.4 20 86.8 20 80 C13.4 80 6.8 80 0 80 C0 73.4 0 66.8 0 60 C-6.6 60 -13.2 60 -20 60 C-20 46.8 -20 33.6 -20 20 C-13.4 20 -6.8 20 0 20 C0 13.4 0 6.8 0 0 Z " fill="#EDED2B" transform="translate(101,631)"/>
<path d="M0 0 C19.8 0 39.6 0 60 0 C60 6.6 60 13.2 60 20 C46.8 20 33.6 20 20 20 C20 26.6 20 33.2 20 40 C-19.6 40 -59.2 40 -100 40 C-100 46.6 -100 53.2 -100 60 C-106.6 60 -113.2 60 -120 60 C-120 66.6 -120 73.2 -120 80 C-133.2 80 -146.4 80 -160 80 C-160 73.4 -160 66.8 -160 60 C-166.6 60 -173.2 60 -180 60 C-180 53.4 -180 46.8 -180 40 C-160.2 40 -140.4 40 -120 40 C-120 33.4 -120 26.8 -120 20 C-80.4 20 -40.8 20 0 20 C0 13.4 0 6.8 0 0 Z " fill="#97BF39" transform="translate(261,471)"/>
<path d="M0 0 C6.6 0 13.2 0 20 0 C20 6.6 20 13.2 20 20 C26.6 20 33.2 20 40 20 C40 26.6 40 33.2 40 40 C46.6 40 53.2 40 60 40 C60 46.6 60 53.2 60 60 C73.2 60 86.4 60 100 60 C100 66.6 100 73.2 100 80 C86.8 80 73.6 80 60 80 C60 86.6 60 93.2 60 100 C46.8 100 33.6 100 20 100 C20 93.4 20 86.8 20 80 C13.4 80 6.8 80 0 80 C0 73.4 0 66.8 0 60 C-6.6 60 -13.2 60 -20 60 C-20 46.8 -20 33.6 -20 20 C-13.4 20 -6.8 20 0 20 C0 13.4 0 6.8 0 0 Z " fill="#A18722" transform="translate(41,491)"/>
<path d="M0 0 C6.6 0 13.2 0 20 0 C20 33 20 66 20 100 C13.4 100 6.8 100 0 100 C0 113.2 0 126.4 0 140 C-19.8 140 -39.6 140 -60 140 C-60 133.4 -60 126.8 -60 120 C-53.4 120 -46.8 120 -40 120 C-40 113.4 -40 106.8 -40 100 C-33.4 100 -26.8 100 -20 100 C-20 73.6 -20 47.2 -20 20 C-13.4 20 -6.8 20 0 20 C0 13.4 0 6.8 0 0 Z " fill="#2A4A1A" transform="translate(301,31)"/>
<path d="M0 0 C29.7 0 59.4 0 90 0 C90 13.2 90 26.4 90 40 C80.1 40 70.2 40 60 40 C60 46.6 60 53.2 60 60 C53.4 60 46.8 60 40 60 C40 63.3 40 66.6 40 70 C26.8 70 13.6 70 0 70 C0 46.9 0 23.8 0 0 Z " fill="#71C746" transform="translate(401,1)"/>
<path d="M0 0 C6.6 0 13.2 0 20 0 C20 13.2 20 26.4 20 40 C26.6 40 33.2 40 40 40 C40 46.6 40 53.2 40 60 C46.6 60 53.2 60 60 60 C60 66.6 60 73.2 60 80 C53.4 80 46.8 80 40 80 C40 93.2 40 106.4 40 120 C33.4 120 26.8 120 20 120 C20 113.4 20 106.8 20 100 C13.4 100 6.8 100 0 100 C0 86.8 0 73.6 0 60 C-13.2 60 -26.4 60 -40 60 C-40 53.4 -40 46.8 -40 40 C-26.8 40 -13.6 40 0 40 C0 26.8 0 13.6 0 0 Z " fill="#2A4A1A" transform="translate(341,671)"/>
<path d="M0 0 C19.8 0 39.6 0 60 0 C60 6.6 60 13.2 60 20 C93 20 126 20 160 20 C160 26.6 160 33.2 160 40 C146.8 40 133.6 40 120 40 C120 46.6 120 53.2 120 60 C113.4 60 106.8 60 100 60 C100 53.4 100 46.8 100 40 C73.6 40 47.2 40 20 40 C20 33.4 20 26.8 20 20 C13.4 20 6.8 20 0 20 C0 13.4 0 6.8 0 0 Z " fill="#4D2A16" transform="translate(101,591)"/>
<path d="M0 0 C13.2 0 26.4 0 40 0 C40 6.6 40 13.2 40 20 C46.6 20 53.2 20 60 20 C60 26.6 60 33.2 60 40 C66.6 40 73.2 40 80 40 C80 66.4 80 92.8 80 120 C73.4 120 66.8 120 60 120 C60 100.2 60 80.4 60 60 C53.4 60 46.8 60 40 60 C40 53.4 40 46.8 40 40 C26.8 40 13.6 40 0 40 C0 26.8 0 13.6 0 0 Z " fill="#72522A" transform="translate(501,451)"/>
<path d="M0 0 C19.8 0 39.6 0 60 0 C60 6.6 60 13.2 60 20 C66.6 20 73.2 20 80 20 C80 39.8 80 59.6 80 80 C66.8 80 53.6 80 40 80 C40 60.2 40 40.4 40 20 C26.8 20 13.6 20 0 20 C0 13.4 0 6.8 0 0 Z " fill="#97BF39" transform="translate(141,631)"/>
<path d="M0 0 C13.2 0 26.4 0 40 0 C40 6.6 40 13.2 40 20 C46.6 20 53.2 20 60 20 C60 26.6 60 33.2 60 40 C53.4 40 46.8 40 40 40 C40 46.6 40 53.2 40 60 C26.8 60 13.6 60 0 60 C0 53.4 0 46.8 0 40 C-6.6 40 -13.2 40 -20 40 C-20 33.4 -20 26.8 -20 20 C-13.4 20 -6.8 20 0 20 C0 13.4 0 6.8 0 0 Z " fill="#A18722" transform="translate(581,711)"/>
<path d="M0 0 C33 0 66 0 100 0 C100 3.3 100 6.6 100 10 C93.4 10 86.8 10 80 10 C80 16.6 80 23.2 80 30 C66.8 30 53.6 30 40 30 C40 36.6 40 43.2 40 50 C33.4 50 26.8 50 20 50 C20 43.4 20 36.8 20 30 C13.4 30 6.8 30 0 30 C0 20.1 0 10.2 0 0 Z " fill="#71C746" transform="translate(161,1)"/>
<path d="M0 0 C6.6 0 13.2 0 20 0 C20 6.6 20 13.2 20 20 C26.6 20 33.2 20 40 20 C40 33.2 40 46.4 40 60 C20.2 60 0.4 60 -20 60 C-20 46.8 -20 33.6 -20 20 C-13.4 20 -6.8 20 0 20 C0 13.4 0 6.8 0 0 Z " fill="#EDED2B" transform="translate(401,731)"/>
<path d="M0 0 C6.6 0 13.2 0 20 0 C20 6.6 20 13.2 20 20 C26.6 20 33.2 20 40 20 C40 26.6 40 33.2 40 40 C46.6 40 53.2 40 60 40 C60 46.6 60 53.2 60 60 C66.6 60 73.2 60 80 60 C80 66.6 80 73.2 80 80 C66.8 80 53.6 80 40 80 C40 73.4 40 66.8 40 60 C33.4 60 26.8 60 20 60 C20 53.4 20 46.8 20 40 C13.4 40 6.8 40 0 40 C0 26.8 0 13.6 0 0 Z " fill="#856735" transform="translate(301,171)"/>
<path d="M0 0 C6.6 0 13.2 0 20 0 C20 6.6 20 13.2 20 20 C33.2 20 46.4 20 60 20 C60 26.6 60 33.2 60 40 C66.6 40 73.2 40 80 40 C80 46.6 80 53.2 80 60 C66.8 60 53.6 60 40 60 C40 53.4 40 46.8 40 40 C26.8 40 13.6 40 0 40 C0 26.8 0 13.6 0 0 Z " fill="#4A822E" transform="translate(221,651)"/>
<path d="M0 0 C6.6 0 13.2 0 20 0 C20 6.6 20 13.2 20 20 C26.6 20 33.2 20 40 20 C40 26.6 40 33.2 40 40 C33.4 40 26.8 40 20 40 C20 46.6 20 53.2 20 60 C13.4 60 6.8 60 0 60 C0 53.4 0 46.8 0 40 C-13.2 40 -26.4 40 -40 40 C-40 33.4 -40 26.8 -40 20 C-26.8 20 -13.6 20 0 20 C0 13.4 0 6.8 0 0 Z " fill="#A18722" transform="translate(401,371)"/>
<path d="M0 0 C6.6 0 13.2 0 20 0 C20 6.6 20 13.2 20 20 C26.6 20 33.2 20 40 20 C40 39.8 40 59.6 40 80 C26.8 80 13.6 80 0 80 C0 73.4 0 66.8 0 60 C6.6 60 13.2 60 20 60 C20 53.4 20 46.8 20 40 C13.4 40 6.8 40 0 40 C0 26.8 0 13.6 0 0 Z " fill="#4D2A16" transform="translate(261,371)"/>
<path d="M0 0 C6.6 0 13.2 0 20 0 C20 6.6 20 13.2 20 20 C26.6 20 33.2 20 40 20 C40 26.6 40 33.2 40 40 C33.4 40 26.8 40 20 40 C20 53.2 20 66.4 20 80 C13.4 80 6.8 80 0 80 C0 53.6 0 27.2 0 0 Z " fill="#A18722" transform="translate(361,711)"/>
<path d="M0 0 C19.8 0 39.6 0 60 0 C60 6.6 60 13.2 60 20 C46.8 20 33.6 20 20 20 C20 26.6 20 33.2 20 40 C6.8 40 -6.4 40 -20 40 C-20 33.4 -20 26.8 -20 20 C-13.4 20 -6.8 20 0 20 C0 13.4 0 6.8 0 0 Z " fill="#BA8E41" transform="translate(261,471)"/>
<path d="M0 0 C6.6 0 13.2 0 20 0 C20 19.8 20 39.6 20 60 C26.6 60 33.2 60 40 60 C40 66.6 40 73.2 40 80 C26.8 80 13.6 80 0 80 C0 53.6 0 27.2 0 0 Z " fill="#97BF39" transform="translate(321,351)"/>
<path d="M0 0 C6.6 0 13.2 0 20 0 C20 33 20 66 20 100 C13.4 100 6.8 100 0 100 C0 67 0 34 0 0 Z " fill="#4A822E" transform="translate(1,331)"/>
<path d="M0 0 C6.6 0 13.2 0 20 0 C20 13.2 20 26.4 20 40 C0.2 40 -19.6 40 -40 40 C-40 33.4 -40 26.8 -40 20 C-26.8 20 -13.6 20 0 20 C0 13.4 0 6.8 0 0 Z " fill="#4A822E" transform="translate(401,531)"/>
<path d="M0 0 C19.8 0 39.6 0 60 0 C60 13.2 60 26.4 60 40 C53.4 40 46.8 40 40 40 C40 33.4 40 26.8 40 20 C26.8 20 13.6 20 0 20 C0 13.4 0 6.8 0 0 Z " fill="#856735" transform="translate(481,531)"/>
<path d="M0 0 C13.2 0 26.4 0 40 0 C40 6.6 40 13.2 40 20 C33.4 20 26.8 20 20 20 C20 33.2 20 46.4 20 60 C13.4 60 6.8 60 0 60 C0 40.2 0 20.4 0 0 Z " fill="#4D2A16" transform="translate(1,451)"/>
<path d="M0 0 C13.2 0 26.4 0 40 0 C40 6.6 40 13.2 40 20 C33.4 20 26.8 20 20 20 C20 26.6 20 33.2 20 40 C6.8 40 -6.4 40 -20 40 C-20 33.4 -20 26.8 -20 20 C-13.4 20 -6.8 20 0 20 C0 13.4 0 6.8 0 0 Z " fill="#97BF39" transform="translate(81,231)"/>
<path d="M0 0 C13.2 0 26.4 0 40 0 C40 6.6 40 13.2 40 20 C33.4 20 26.8 20 20 20 C20 26.6 20 33.2 20 40 C6.8 40 -6.4 40 -20 40 C-20 33.4 -20 26.8 -20 20 C-13.4 20 -6.8 20 0 20 C0 13.4 0 6.8 0 0 Z " fill="#856735" transform="translate(141,191)"/>
<path d="M0 0 C6.6 0 13.2 0 20 0 C20 6.6 20 13.2 20 20 C26.6 20 33.2 20 40 20 C40 26.6 40 33.2 40 40 C20.2 40 0.4 40 -20 40 C-20 33.4 -20 26.8 -20 20 C-13.4 20 -6.8 20 0 20 C0 13.4 0 6.8 0 0 Z " fill="#4D2A16" transform="translate(261,131)"/>
<path d="M0 0 C13.2 0 26.4 0 40 0 C40 13.2 40 26.4 40 40 C33.4 40 26.8 40 20 40 C20 33.4 20 26.8 20 20 C13.4 20 6.8 20 0 20 C0 13.4 0 6.8 0 0 Z " fill="#A18722" transform="translate(421,731)"/>
<path d="M0 0 C6.6 0 13.2 0 20 0 C20 19.8 20 39.6 20 60 C13.4 60 6.8 60 0 60 C0 40.2 0 20.4 0 0 Z " fill="#A18722" transform="translate(161,651)"/>
<path d="M0 0 C19.8 0 39.6 0 60 0 C60 6.6 60 13.2 60 20 C40.2 20 20.4 20 0 20 C0 13.4 0 6.8 0 0 Z " fill="#4D2A16" transform="translate(261,591)"/>
<path d="M0 0 C19.8 0 39.6 0 60 0 C60 6.6 60 13.2 60 20 C40.2 20 20.4 20 0 20 C0 13.4 0 6.8 0 0 Z " fill="#4D2A16" transform="translate(101,591)"/>
<path d="M0 0 C6.6 0 13.2 0 20 0 C20 13.2 20 26.4 20 40 C6.8 40 -6.4 40 -20 40 C-20 33.4 -20 26.8 -20 20 C-13.4 20 -6.8 20 0 20 C0 13.4 0 6.8 0 0 Z " fill="#4D2A16" transform="translate(441,471)"/>
<path d="M0 0 C13.2 0 26.4 0 40 0 C40 6.6 40 13.2 40 20 C33.4 20 26.8 20 20 20 C20 26.6 20 33.2 20 40 C13.4 40 6.8 40 0 40 C0 26.8 0 13.6 0 0 Z " fill="#4D2A16" transform="translate(501,451)"/>
<path d="M0 0 C13.2 0 26.4 0 40 0 C40 6.6 40 13.2 40 20 C26.8 20 13.6 20 0 20 C0 13.4 0 6.8 0 0 Z " fill="#4D2A16" transform="translate(581,751)"/>
<path d="M0 0 C6.6 0 13.2 0 20 0 C20 13.2 20 26.4 20 40 C13.4 40 6.8 40 0 40 C0 26.8 0 13.6 0 0 Z " fill="#4D2A16" transform="translate(341,731)"/>
<path d="M0 0 C13.2 0 26.4 0 40 0 C40 6.6 40 13.2 40 20 C26.8 20 13.6 20 0 20 C0 13.4 0 6.8 0 0 Z " fill="#4A822E" transform="translate(481,691)"/>
<path d="M0 0 C13.2 0 26.4 0 40 0 C40 6.6 40 13.2 40 20 C26.8 20 13.6 20 0 20 C0 13.4 0 6.8 0 0 Z " fill="#2A4A1A" transform="translate(261,691)"/>
<path d="M0 0 C6.6 0 13.2 0 20 0 C20 13.2 20 26.4 20 40 C13.4 40 6.8 40 0 40 C0 26.8 0 13.6 0 0 Z " fill="#2A4A1A" transform="translate(461,651)"/>
<path d="M0 0 C6.6 0 13.2 0 20 0 C20 13.2 20 26.4 20 40 C13.4 40 6.8 40 0 40 C0 26.8 0 13.6 0 0 Z " fill="#4A822E" transform="translate(341,671)"/>
<path d="M0 0 C6.6 0 13.2 0 20 0 C20 13.2 20 26.4 20 40 C13.4 40 6.8 40 0 40 C0 26.8 0 13.6 0 0 Z " fill="#4D2A16" transform="translate(81,651)"/>
<path d="M0 0 C6.6 0 13.2 0 20 0 C20 13.2 20 26.4 20 40 C13.4 40 6.8 40 0 40 C0 26.8 0 13.6 0 0 Z " fill="#2A4A1A" transform="translate(621,631)"/>
<path d="M0 0 C6.6 0 13.2 0 20 0 C20 13.2 20 26.4 20 40 C13.4 40 6.8 40 0 40 C0 26.8 0 13.6 0 0 Z " fill="#4A822E" transform="translate(361,631)"/>
<path d="M0 0 C6.6 0 13.2 0 20 0 C20 13.2 20 26.4 20 40 C13.4 40 6.8 40 0 40 C0 26.8 0 13.6 0 0 Z " fill="#4A822E" transform="translate(601,591)"/>
<path d="M0 0 C13.2 0 26.4 0 40 0 C40 6.6 40 13.2 40 20 C26.8 20 13.6 20 0 20 C0 13.4 0 6.8 0 0 Z " fill="#4A822E" transform="translate(121,611)"/>
<path d="M0 0 C13.2 0 26.4 0 40 0 C40 6.6 40 13.2 40 20 C26.8 20 13.6 20 0 20 C0 13.4 0 6.8 0 0 Z " fill="#4D2A16" transform="translate(321,571)"/>
<path d="M0 0 C13.2 0 26.4 0 40 0 C40 6.6 40 13.2 40 20 C26.8 20 13.6 20 0 20 C0 13.4 0 6.8 0 0 Z " fill="#4D2A16" transform="translate(61,571)"/>
<path d="M0 0 C13.2 0 26.4 0 40 0 C40 6.6 40 13.2 40 20 C26.8 20 13.6 20 0 20 C0 13.4 0 6.8 0 0 Z " fill="#4D2A16" transform="translate(361,551)"/>
<path d="M0 0 C13.2 0 26.4 0 40 0 C40 6.6 40 13.2 40 20 C26.8 20 13.6 20 0 20 C0 13.4 0 6.8 0 0 Z " fill="#4A822E" transform="translate(101,551)"/>
<path d="M0 0 C6.6 0 13.2 0 20 0 C20 13.2 20 26.4 20 40 C13.4 40 6.8 40 0 40 C0 26.8 0 13.6 0 0 Z " fill="#4D2A16" transform="translate(521,491)"/>
<path d="M0 0 C6.6 0 13.2 0 20 0 C20 13.2 20 26.4 20 40 C13.4 40 6.8 40 0 40 C0 26.8 0 13.6 0 0 Z " fill="#4D2A16" transform="translate(21,511)"/>
<path d="M0 0 C13.2 0 26.4 0 40 0 C40 6.6 40 13.2 40 20 C26.8 20 13.6 20 0 20 C0 13.4 0 6.8 0 0 Z " fill="#4A822E" transform="translate(281,471)"/>
<path d="M0 0 C6.6 0 13.2 0 20 0 C20 13.2 20 26.4 20 40 C13.4 40 6.8 40 0 40 C0 26.8 0 13.6 0 0 Z " fill="#EDED2B" transform="translate(21,471)"/>
<path d="M0 0 C13.2 0 26.4 0 40 0 C40 6.6 40 13.2 40 20 C26.8 20 13.6 20 0 20 C0 13.4 0 6.8 0 0 Z " fill="#EDED2B" transform="translate(261,451)"/>
<path d="M0 0 C13.2 0 26.4 0 40 0 C40 6.6 40 13.2 40 20 C26.8 20 13.6 20 0 20 C0 13.4 0 6.8 0 0 Z " fill="#4D2A16" transform="translate(461,431)"/>
<path d="M0 0 C13.2 0 26.4 0 40 0 C40 6.6 40 13.2 40 20 C26.8 20 13.6 20 0 20 C0 13.4 0 6.8 0 0 Z " fill="#BA8E41" transform="translate(261,431)"/>
<path d="M0 0 C13.2 0 26.4 0 40 0 C40 6.6 40 13.2 40 20 C26.8 20 13.6 20 0 20 C0 13.4 0 6.8 0 0 Z " fill="#4D2A16" transform="translate(421,411)"/>
<path d="M0 0 C13.2 0 26.4 0 40 0 C40 6.6 40 13.2 40 20 C26.8 20 13.6 20 0 20 C0 13.4 0 6.8 0 0 Z " fill="#97BF39" transform="translate(361,391)"/>
<path d="M0 0 C6.6 0 13.2 0 20 0 C20 13.2 20 26.4 20 40 C13.4 40 6.8 40 0 40 C0 26.8 0 13.6 0 0 Z " fill="#050501" transform="translate(261,371)"/>
<path d="M0 0 C6.6 0 13.2 0 20 0 C20 13.2 20 26.4 20 40 C13.4 40 6.8 40 0 40 C0 26.8 0 13.6 0 0 Z " fill="#97BF39" transform="translate(81,351)"/>
<path d="M0 0 C6.6 0 13.2 0 20 0 C20 13.2 20 26.4 20 40 C13.4 40 6.8 40 0 40 C0 26.8 0 13.6 0 0 Z " fill="#97BF39" transform="translate(41,351)"/>
<path d="M0 0 C6.6 0 13.2 0 20 0 C20 13.2 20 26.4 20 40 C13.4 40 6.8 40 0 40 C0 26.8 0 13.6 0 0 Z " fill="#97BF39" transform="translate(21,291)"/>
<path d="M0 0 C13.2 0 26.4 0 40 0 C40 6.6 40 13.2 40 20 C26.8 20 13.6 20 0 20 C0 13.4 0 6.8 0 0 Z " fill="#AEE378" transform="translate(121,231)"/>
<path d="M0 0 C13.2 0 26.4 0 40 0 C40 6.6 40 13.2 40 20 C26.8 20 13.6 20 0 20 C0 13.4 0 6.8 0 0 Z " fill="#4D2A16" transform="translate(141,191)"/>
<path d="M0 0 C13.2 0 26.4 0 40 0 C40 6.6 40 13.2 40 20 C26.8 20 13.6 20 0 20 C0 13.4 0 6.8 0 0 Z " fill="#856735" transform="translate(181,171)"/>
<path d="M0 0 C6.6 0 13.2 0 20 0 C20 13.2 20 26.4 20 40 C13.4 40 6.8 40 0 40 C0 26.8 0 13.6 0 0 Z " fill="#856735" transform="translate(281,111)"/>
<path d="M0 0 C6.6 0 13.2 0 20 0 C20 13.2 20 26.4 20 40 C13.4 40 6.8 40 0 40 C0 26.8 0 13.6 0 0 Z " fill="#4D2A16" transform="translate(301,91)"/>
<path d="M0 0 C6.6 0 13.2 0 20 0 C20 13.2 20 26.4 20 40 C13.4 40 6.8 40 0 40 C0 26.8 0 13.6 0 0 Z " fill="#4A822E" transform="translate(321,51)"/>
<path d="M0 0 C6.6 0 13.2 0 20 0 C20 13.2 20 26.4 20 40 C13.4 40 6.8 40 0 40 C0 26.8 0 13.6 0 0 Z " fill="#856735" transform="translate(301,31)"/>
<path d="M0 0 C6.6 0 13.2 0 20 0 C20 13.2 20 26.4 20 40 C13.4 40 6.8 40 0 40 C0 26.8 0 13.6 0 0 Z " fill="#2A4A1A" transform="translate(161,31)"/>
<path d="M0 0 C13.2 0 26.4 0 40 0 C40 6.6 40 13.2 40 20 C26.8 20 13.6 20 0 20 C0 13.4 0 6.8 0 0 Z " fill="#2A4A1A" transform="translate(361,11)"/>
<path d="M0 0 C6.6 0 13.2 0 20 0 C20 6.6 20 13.2 20 20 C13.4 20 6.8 20 0 20 C0 13.4 0 6.8 0 0 Z " fill="#4D2A16" transform="translate(361,771)"/>
<path d="M0 0 C6.6 0 13.2 0 20 0 C20 6.6 20 13.2 20 20 C13.4 20 6.8 20 0 20 C0 13.4 0 6.8 0 0 Z " fill="#97BF39" transform="translate(421,731)"/>
<path d="M0 0 C6.6 0 13.2 0 20 0 C20 6.6 20 13.2 20 20 C13.4 20 6.8 20 0 20 C0 13.4 0 6.8 0 0 Z " fill="#97BF39" transform="translate(381,731)"/>
<path d="M0 0 C6.6 0 13.2 0 20 0 C20 6.6 20 13.2 20 20 C13.4 20 6.8 20 0 20 C0 13.4 0 6.8 0 0 Z " fill="#A18722" transform="translate(401,711)"/>
<path d="M0 0 C6.6 0 13.2 0 20 0 C20 6.6 20 13.2 20 20 C13.4 20 6.8 20 0 20 C0 13.4 0 6.8 0 0 Z " fill="#97BF39" transform="translate(361,711)"/>
<path d="M0 0 C6.6 0 13.2 0 20 0 C20 6.6 20 13.2 20 20 C13.4 20 6.8 20 0 20 C0 13.4 0 6.8 0 0 Z " fill="#4A822E" transform="translate(121,711)"/>
<path d="M0 0 C6.6 0 13.2 0 20 0 C20 6.6 20 13.2 20 20 C13.4 20 6.8 20 0 20 C0 13.4 0 6.8 0 0 Z " fill="#4A822E" transform="translate(201,691)"/>
<path d="M0 0 C6.6 0 13.2 0 20 0 C20 6.6 20 13.2 20 20 C13.4 20 6.8 20 0 20 C0 13.4 0 6.8 0 0 Z " fill="#4A822E" transform="translate(101,691)"/>
<path d="M0 0 C6.6 0 13.2 0 20 0 C20 6.6 20 13.2 20 20 C13.4 20 6.8 20 0 20 C0 13.4 0 6.8 0 0 Z " fill="#4A822E" transform="translate(521,671)"/>
<path d="M0 0 C6.6 0 13.2 0 20 0 C20 6.6 20 13.2 20 20 C13.4 20 6.8 20 0 20 C0 13.4 0 6.8 0 0 Z " fill="#97BF39" transform="translate(361,671)"/>
<path d="M0 0 C6.6 0 13.2 0 20 0 C20 6.6 20 13.2 20 20 C13.4 20 6.8 20 0 20 C0 13.4 0 6.8 0 0 Z " fill="#4A822E" transform="translate(261,671)"/>
<path d="M0 0 C6.6 0 13.2 0 20 0 C20 6.6 20 13.2 20 20 C13.4 20 6.8 20 0 20 C0 13.4 0 6.8 0 0 Z " fill="#2A4A1A" transform="translate(241,671)"/>
<path d="M0 0 C6.6 0 13.2 0 20 0 C20 6.6 20 13.2 20 20 C13.4 20 6.8 20 0 20 C0 13.4 0 6.8 0 0 Z " fill="#4A822E" transform="translate(541,651)"/>
<path d="M0 0 C6.6 0 13.2 0 20 0 C20 6.6 20 13.2 20 20 C13.4 20 6.8 20 0 20 C0 13.4 0 6.8 0 0 Z " fill="#4A822E" transform="translate(461,651)"/>
<path d="M0 0 C6.6 0 13.2 0 20 0 C20 6.6 20 13.2 20 20 C13.4 20 6.8 20 0 20 C0 13.4 0 6.8 0 0 Z " fill="#2A4A1A" transform="translate(221,651)"/>
<path d="M0 0 C6.6 0 13.2 0 20 0 C20 6.6 20 13.2 20 20 C13.4 20 6.8 20 0 20 C0 13.4 0 6.8 0 0 Z " fill="#4A822E" transform="translate(201,631)"/>
<path d="M0 0 C6.6 0 13.2 0 20 0 C20 6.6 20 13.2 20 20 C13.4 20 6.8 20 0 20 C0 13.4 0 6.8 0 0 Z " fill="#A18722" transform="translate(141,631)"/>
<path d="M0 0 C6.6 0 13.2 0 20 0 C20 6.6 20 13.2 20 20 C13.4 20 6.8 20 0 20 C0 13.4 0 6.8 0 0 Z " fill="#AEE378" transform="translate(121,631)"/>
<path d="M0 0 C6.6 0 13.2 0 20 0 C20 6.6 20 13.2 20 20 C13.4 20 6.8 20 0 20 C0 13.4 0 6.8 0 0 Z " fill="#4D2A16" transform="translate(101,631)"/>
<path d="M0 0 C6.6 0 13.2 0 20 0 C20 6.6 20 13.2 20 20 C13.4 20 6.8 20 0 20 C0 13.4 0 6.8 0 0 Z " fill="#4A822E" transform="translate(561,611)"/>
<path d="M0 0 C6.6 0 13.2 0 20 0 C20 6.6 20 13.2 20 20 C13.4 20 6.8 20 0 20 C0 13.4 0 6.8 0 0 Z " fill="#2A4A1A" transform="translate(601,591)"/>
<path d="M0 0 C6.6 0 13.2 0 20 0 C20 6.6 20 13.2 20 20 C13.4 20 6.8 20 0 20 C0 13.4 0 6.8 0 0 Z " fill="#4A822E" transform="translate(501,591)"/>
<path d="M0 0 C6.6 0 13.2 0 20 0 C20 6.6 20 13.2 20 20 C13.4 20 6.8 20 0 20 C0 13.4 0 6.8 0 0 Z " fill="#4A822E" transform="translate(161,591)"/>
<path d="M0 0 C6.6 0 13.2 0 20 0 C20 6.6 20 13.2 20 20 C13.4 20 6.8 20 0 20 C0 13.4 0 6.8 0 0 Z " fill="#4A822E" transform="translate(441,571)"/>
<path d="M0 0 C6.6 0 13.2 0 20 0 C20 6.6 20 13.2 20 20 C13.4 20 6.8 20 0 20 C0 13.4 0 6.8 0 0 Z " fill="#4D2A16" transform="translate(561,551)"/>
<path d="M0 0 C6.6 0 13.2 0 20 0 C20 6.6 20 13.2 20 20 C13.4 20 6.8 20 0 20 C0 13.4 0 6.8 0 0 Z " fill="#4D2A16" transform="translate(501,551)"/>
<path d="M0 0 C6.6 0 13.2 0 20 0 C20 6.6 20 13.2 20 20 C13.4 20 6.8 20 0 20 C0 13.4 0 6.8 0 0 Z " fill="#4D2A16" transform="translate(41,551)"/>
<path d="M0 0 C6.6 0 13.2 0 20 0 C20 6.6 20 13.2 20 20 C13.4 20 6.8 20 0 20 C0 13.4 0 6.8 0 0 Z " fill="#4D2A16" transform="translate(461,531)"/>
<path d="M0 0 C6.6 0 13.2 0 20 0 C20 6.6 20 13.2 20 20 C13.4 20 6.8 20 0 20 C0 13.4 0 6.8 0 0 Z " fill="#4D2A16" transform="translate(401,531)"/>
<path d="M0 0 C6.6 0 13.2 0 20 0 C20 6.6 20 13.2 20 20 C13.4 20 6.8 20 0 20 C0 13.4 0 6.8 0 0 Z " fill="#4A822E" transform="translate(141,531)"/>
<path d="M0 0 C6.6 0 13.2 0 20 0 C20 6.6 20 13.2 20 20 C13.4 20 6.8 20 0 20 C0 13.4 0 6.8 0 0 Z " fill="#2A4A1A" transform="translate(81,531)"/>
<path d="M0 0 C6.6 0 13.2 0 20 0 C20 6.6 20 13.2 20 20 C13.4 20 6.8 20 0 20 C0 13.4 0 6.8 0 0 Z " fill="#4A822E" transform="translate(161,511)"/>
<path d="M0 0 C6.6 0 13.2 0 20 0 C20 6.6 20 13.2 20 20 C13.4 20 6.8 20 0 20 C0 13.4 0 6.8 0 0 Z " fill="#2A4A1A" transform="translate(61,511)"/>
<path d="M0 0 C6.6 0 13.2 0 20 0 C20 6.6 20 13.2 20 20 C13.4 20 6.8 20 0 20 C0 13.4 0 6.8 0 0 Z " fill="#4D2A16" transform="translate(561,491)"/>
<path d="M0 0 C6.6 0 13.2 0 20 0 C20 6.6 20 13.2 20 20 C13.4 20 6.8 20 0 20 C0 13.4 0 6.8 0 0 Z " fill="#BA8E41" transform="translate(541,491)"/>
<path d="M0 0 C6.6 0 13.2 0 20 0 C20 6.6 20 13.2 20 20 C13.4 20 6.8 20 0 20 C0 13.4 0 6.8 0 0 Z " fill="#050501" transform="translate(521,491)"/>
<path d="M0 0 C6.6 0 13.2 0 20 0 C20 6.6 20 13.2 20 20 C13.4 20 6.8 20 0 20 C0 13.4 0 6.8 0 0 Z " fill="#4A822E" transform="translate(241,491)"/>
<path d="M0 0 C6.6 0 13.2 0 20 0 C20 6.6 20 13.2 20 20 C13.4 20 6.8 20 0 20 C0 13.4 0 6.8 0 0 Z " fill="#2A4A1A" transform="translate(41,491)"/>
<path d="M0 0 C6.6 0 13.2 0 20 0 C20 6.6 20 13.2 20 20 C13.4 20 6.8 20 0 20 C0 13.4 0 6.8 0 0 Z " fill="#BA8E41" transform="translate(521,471)"/>
<path d="M0 0 C6.6 0 13.2 0 20 0 C20 6.6 20 13.2 20 20 C13.4 20 6.8 20 0 20 C0 13.4 0 6.8 0 0 Z " fill="#050501" transform="translate(501,471)"/>
<path d="M0 0 C6.6 0 13.2 0 20 0 C20 6.6 20 13.2 20 20 C13.4 20 6.8 20 0 20 C0 13.4 0 6.8 0 0 Z " fill="#97BF39" transform="translate(261,471)"/>
<path d="M0 0 C6.6 0 13.2 0 20 0 C20 6.6 20 13.2 20 20 C13.4 20 6.8 20 0 20 C0 13.4 0 6.8 0 0 Z " fill="#97BF39" transform="translate(41,471)"/>
<path d="M0 0 C6.6 0 13.2 0 20 0 C20 6.6 20 13.2 20 20 C13.4 20 6.8 20 0 20 C0 13.4 0 6.8 0 0 Z " fill="#856735" transform="translate(441,451)"/>
<path d="M0 0 C6.6 0 13.2 0 20 0 C20 6.6 20 13.2 20 20 C13.4 20 6.8 20 0 20 C0 13.4 0 6.8 0 0 Z " fill="#2A4A1A" transform="translate(321,451)"/>
<path d="M0 0 C6.6 0 13.2 0 20 0 C20 6.6 20 13.2 20 20 C13.4 20 6.8 20 0 20 C0 13.4 0 6.8 0 0 Z " fill="#97BF39" transform="translate(301,451)"/>
<path d="M0 0 C6.6 0 13.2 0 20 0 C20 6.6 20 13.2 20 20 C13.4 20 6.8 20 0 20 C0 13.4 0 6.8 0 0 Z " fill="#97BF39" transform="translate(241,451)"/>
<path d="M0 0 C6.6 0 13.2 0 20 0 C20 6.6 20 13.2 20 20 C13.4 20 6.8 20 0 20 C0 13.4 0 6.8 0 0 Z " fill="#2A4A1A" transform="translate(21,451)"/>
<path d="M0 0 C6.6 0 13.2 0 20 0 C20 6.6 20 13.2 20 20 C13.4 20 6.8 20 0 20 C0 13.4 0 6.8 0 0 Z " fill="#BA8E41" transform="translate(441,431)"/>
<path d="M0 0 C6.6 0 13.2 0 20 0 C20 6.6 20 13.2 20 20 C13.4 20 6.8 20 0 20 C0 13.4 0 6.8 0 0 Z " fill="#AEE378" transform="translate(321,431)"/>
<path d="M0 0 C6.6 0 13.2 0 20 0 C20 6.6 20 13.2 20 20 C13.4 20 6.8 20 0 20 C0 13.4 0 6.8 0 0 Z " fill="#050501" transform="translate(261,431)"/>
<path d="M0 0 C6.6 0 13.2 0 20 0 C20 6.6 20 13.2 20 20 C13.4 20 6.8 20 0 20 C0 13.4 0 6.8 0 0 Z " fill="#97BF39" transform="translate(21,431)"/>
<path d="M0 0 C6.6 0 13.2 0 20 0 C20 6.6 20 13.2 20 20 C13.4 20 6.8 20 0 20 C0 13.4 0 6.8 0 0 Z " fill="#050501" transform="translate(421,411)"/>
<path d="M0 0 C6.6 0 13.2 0 20 0 C20 6.6 20 13.2 20 20 C13.4 20 6.8 20 0 20 C0 13.4 0 6.8 0 0 Z " fill="#A18722" transform="translate(341,411)"/>
<path d="M0 0 C6.6 0 13.2 0 20 0 C20 6.6 20 13.2 20 20 C13.4 20 6.8 20 0 20 C0 13.4 0 6.8 0 0 Z " fill="#FCFCFC" transform="translate(261,411)"/>
<path d="M0 0 C6.6 0 13.2 0 20 0 C20 6.6 20 13.2 20 20 C13.4 20 6.8 20 0 20 C0 13.4 0 6.8 0 0 Z " fill="#BA8E41" transform="translate(421,391)"/>
<path d="M0 0 C6.6 0 13.2 0 20 0 C20 6.6 20 13.2 20 20 C13.4 20 6.8 20 0 20 C0 13.4 0 6.8 0 0 Z " fill="#4A822E" transform="translate(401,371)"/>
<path d="M0 0 C6.6 0 13.2 0 20 0 C20 6.6 20 13.2 20 20 C13.4 20 6.8 20 0 20 C0 13.4 0 6.8 0 0 Z " fill="#BA8E41" transform="translate(281,371)"/>
<path d="M0 0 C6.6 0 13.2 0 20 0 C20 6.6 20 13.2 20 20 C13.4 20 6.8 20 0 20 C0 13.4 0 6.8 0 0 Z " fill="#2A4A1A" transform="translate(81,351)"/>
<path d="M0 0 C6.6 0 13.2 0 20 0 C20 6.6 20 13.2 20 20 C13.4 20 6.8 20 0 20 C0 13.4 0 6.8 0 0 Z " fill="#2A4A1A" transform="translate(41,351)"/>
<path d="M0 0 C6.6 0 13.2 0 20 0 C20 6.6 20 13.2 20 20 C13.4 20 6.8 20 0 20 C0 13.4 0 6.8 0 0 Z " fill="#97BF39" transform="translate(301,331)"/>
<path d="M0 0 C6.6 0 13.2 0 20 0 C20 6.6 20 13.2 20 20 C13.4 20 6.8 20 0 20 C0 13.4 0 6.8 0 0 Z " fill="#97BF39" transform="translate(241,331)"/>
<path d="M0 0 C6.6 0 13.2 0 20 0 C20 6.6 20 13.2 20 20 C13.4 20 6.8 20 0 20 C0 13.4 0 6.8 0 0 Z " fill="#4A822E" transform="translate(381,291)"/>
<path d="M0 0 C6.6 0 13.2 0 20 0 C20 6.6 20 13.2 20 20 C13.4 20 6.8 20 0 20 C0 13.4 0 6.8 0 0 Z " fill="#4A822E" transform="translate(21,291)"/>
<path d="M0 0 C6.6 0 13.2 0 20 0 C20 6.6 20 13.2 20 20 C13.4 20 6.8 20 0 20 C0 13.4 0 6.8 0 0 Z " fill="#4A822E" transform="translate(41,271)"/>
<path d="M0 0 C6.6 0 13.2 0 20 0 C20 6.6 20 13.2 20 20 C13.4 20 6.8 20 0 20 C0 13.4 0 6.8 0 0 Z " fill="#4A822E" transform="translate(61,251)"/>
<path d="M0 0 C6.6 0 13.2 0 20 0 C20 6.6 20 13.2 20 20 C13.4 20 6.8 20 0 20 C0 13.4 0 6.8 0 0 Z " fill="#2A4A1A" transform="translate(361,231)"/>
<path d="M0 0 C6.6 0 13.2 0 20 0 C20 6.6 20 13.2 20 20 C13.4 20 6.8 20 0 20 C0 13.4 0 6.8 0 0 Z " fill="#856735" transform="translate(241,211)"/>
<path d="M0 0 C6.6 0 13.2 0 20 0 C20 6.6 20 13.2 20 20 C13.4 20 6.8 20 0 20 C0 13.4 0 6.8 0 0 Z " fill="#856735" transform="translate(201,211)"/>
<path d="M0 0 C6.6 0 13.2 0 20 0 C20 6.6 20 13.2 20 20 C13.4 20 6.8 20 0 20 C0 13.4 0 6.8 0 0 Z " fill="#4D2A16" transform="translate(301,171)"/>
<path d="M0 0 C6.6 0 13.2 0 20 0 C20 6.6 20 13.2 20 20 C13.4 20 6.8 20 0 20 C0 13.4 0 6.8 0 0 Z " fill="#856735" transform="translate(281,171)"/>
<path d="M0 0 C6.6 0 13.2 0 20 0 C20 6.6 20 13.2 20 20 C13.4 20 6.8 20 0 20 C0 13.4 0 6.8 0 0 Z " fill="#4D2A16" transform="translate(181,171)"/>
<path d="M0 0 C6.6 0 13.2 0 20 0 C20 6.6 20 13.2 20 20 C13.4 20 6.8 20 0 20 C0 13.4 0 6.8 0 0 Z " fill="#856735" transform="translate(221,151)"/>
<path d="M0 0 C6.6 0 13.2 0 20 0 C20 6.6 20 13.2 20 20 C13.4 20 6.8 20 0 20 C0 13.4 0 6.8 0 0 Z " fill="#2A4A1A" transform="translate(341,111)"/>
<path d="M0 0 C6.6 0 13.2 0 20 0 C20 6.6 20 13.2 20 20 C13.4 20 6.8 20 0 20 C0 13.4 0 6.8 0 0 Z " fill="#2A4A1A" transform="translate(181,71)"/>
<path d="M0 0 C6.6 0 13.2 0 20 0 C20 6.6 20 13.2 20 20 C13.4 20 6.8 20 0 20 C0 13.4 0 6.8 0 0 Z " fill="#2A4A1A" transform="translate(341,31)"/>
<path d="M0 0 C6.6 0 13.2 0 20 0 C20 6.6 20 13.2 20 20 C13.4 20 6.8 20 0 20 C0 13.4 0 6.8 0 0 Z " fill="#4D2A16" transform="translate(301,31)"/>
<path d="M0 0 C13.2 0 26.4 0 40 0 C40 3.3 40 6.6 40 10 C26.8 10 13.6 10 0 10 C0 6.7 0 3.4 0 0 Z " fill="#1F8713" transform="translate(401,1)"/>
<path d="M0 0 C6.6 0 13.2 0 20 0 C20 3.3 20 6.6 20 10 C13.4 10 6.8 10 0 10 C0 6.7 0 3.4 0 0 Z " fill="#2A4A1A" transform="translate(401,1)"/>
</svg>
